<svg width="30" height="30" viewBox="0 0 30 30" fill="none" xmlns="http://www.w3.org/2000/svg">
<path d="M13.1875 3.16485C13.6947 2.73738 14.3367 2.50293 15 2.50293C15.6633 2.50293 16.3053 2.73738 16.8125 3.16485L25.25 10.2798C25.8838 10.8148 26.25 11.6011 26.25 12.4298V24.6836C26.25 25.2638 26.0195 25.8202 25.6093 26.2304C25.1991 26.6406 24.6427 26.8711 24.0625 26.8711H19.6875C19.1073 26.8711 18.5509 26.6406 18.1407 26.2304C17.7305 25.8202 17.5 25.2638 17.5 24.6836V17.8086C17.5 17.7257 17.4671 17.6462 17.4085 17.5876C17.3499 17.529 17.2704 17.4961 17.1875 17.4961H12.8125C12.7296 17.4961 12.6501 17.529 12.5915 17.5876C12.5329 17.6462 12.5 17.7257 12.5 17.8086V24.6836C12.5 25.2638 12.2695 25.8202 11.8593 26.2304C11.4491 26.6406 10.8927 26.8711 10.3125 26.8711H5.9375C5.65023 26.8711 5.36578 26.8145 5.10038 26.7046C4.83498 26.5947 4.59383 26.4335 4.3907 26.2304C4.18758 26.0273 4.02645 25.7861 3.91651 25.5207C3.80658 25.2553 3.75 24.9709 3.75 24.6836V12.4298C3.75 11.6011 4.11625 10.8148 4.75 10.2798L13.1875 3.16485ZM15.6038 4.5986C15.4347 4.45633 15.2209 4.37831 15 4.37831C14.7791 4.37831 14.5653 4.45633 14.3962 4.5986L5.95875 11.7123C5.85434 11.8002 5.77037 11.9099 5.71273 12.0336C5.65508 12.1573 5.62514 12.2921 5.625 12.4286V24.6823C5.625 24.8548 5.765 24.9948 5.9375 24.9948H10.3125C10.3954 24.9948 10.4749 24.9619 10.5335 24.9033C10.5921 24.8447 10.625 24.7652 10.625 24.6823V17.8073C10.625 16.5986 11.605 15.6198 12.8125 15.6198H17.1875C18.395 15.6198 19.375 16.5986 19.375 17.8073V24.6823C19.375 24.8548 19.515 24.9948 19.6875 24.9948H24.0625C24.1454 24.9948 24.2249 24.9619 24.2835 24.9033C24.3421 24.8447 24.375 24.7652 24.375 24.6823V12.4298C24.3749 12.2934 24.3449 12.1586 24.2873 12.0348C24.2296 11.9111 24.1457 11.8015 24.0413 11.7136L15.6038 4.5986Z" fill="#008CFF"/>
</svg>
